<svg id="Layer_1" data-name="Layer 1" xmlns="http://www.w3.org/2000/svg" viewBox="0 0 703 175"><defs><style>.cls-1{fill:#51c5ed;}.cls-10,.cls-11,.cls-15,.cls-16,.cls-19,.cls-2,.cls-21,.cls-22,.cls-23,.cls-24,.cls-8{fill:none;}.cls-11,.cls-2,.cls-23,.cls-24,.cls-3,.cls-8{stroke:blue;}.cls-10,.cls-11,.cls-16,.cls-19,.cls-2,.cls-21,.cls-22,.cls-23,.cls-24,.cls-3,.cls-6,.cls-8{stroke-miterlimit:10;}.cls-10,.cls-19,.cls-2,.cls-22,.cls-23,.cls-24,.cls-3{stroke-width:2px;}.cls-12,.cls-3{fill:#fff;}.cls-4{fill:blue;}.cls-5,.cls-6{fill:#1027fa;}.cls-6{stroke:#ff0;}.cls-6,.cls-8{stroke-width:4px;}.cls-7{fill:#fed4ae;}.cls-9{fill:#fd9fb0;}.cls-10,.cls-16{stroke:#ff7bac;}.cls-13{fill:#1027fb;}.cls-14{fill:#fc7e74;}.cls-17{fill:#fcef71;}.cls-18{fill:#fd9eaf;}.cls-19{stroke:#29abe2;}.cls-20{fill:#0e25fb;}.cls-21,.cls-22{stroke:#fff;}.cls-21{stroke-width:3px;}.cls-23{stroke-dasharray:13.85 13.85;}.cls-24{stroke-dasharray:15.44 15.44;}.cls-25{fill:#fc766a;}.cls-26{fill:#1200ff;}.cls-27{fill:#ff0;}.cls-28{fill:#fcee21;}</style></defs><title>CUSTOMER LONG SIZE</title><rect class="cls-1" x="533.04" y="30.21" width="29.72" height="25.36"/><path class="cls-2" d="M553.64,20.1a6.54,6.54,0,1,1-13.08,0c0-3.61,4.36-10.1,6.74-10.1S553.64,16.49,553.64,20.1Z"/><path class="cls-2" d="M562.39,39.1a6.54,6.54,0,0,1-10.5-7.79c2.15-2.9,9.52-5.52,11.43-4.1S564.54,36.2,562.39,39.1Z"/><path class="cls-2" d="M544.86,36.61a6.54,6.54,0,0,1-9.22.65c-2.73-2.37-4.77-9.91-3.22-11.71Z"/><line class="cls-2" x1="547.3" y1="10" x2="547.3" y2="55.57"/><line class="cls-2" x1="547.3" y1="38.53" x2="532.64" y2="25.45"/><line class="cls-2" x1="563.94" y1="27.43" x2="563.55" y2="27.83"/><line class="cls-2" x1="547.3" y1="44.08" x2="563.94" y2="27.43"/><line class="cls-2" x1="562.76" y1="37.34" x2="599.21" y2="37.34"/><line class="cls-2" x1="562.76" y1="42.1" x2="599.21" y2="42.1"/><line class="cls-2" x1="562.76" y1="47.25" x2="598.81" y2="47.25"/><line class="cls-2" x1="562.76" y1="52.79" x2="598.81" y2="52.79"/><path class="cls-2" d="M466.07,34.17h57.06s-1.58-9.11-7.92-10.3-10.3.79-10.3.79-3.17-8.72-12.28-10.3S478,15.55,478,15.55s-7.53,3.57-9.91,9.91S466.07,33,466.07,34.17Z"/><path class="cls-3" d="M598.52,23.56h66.35A14.08,14.08,0,0,1,679,37.64V144.81a0,0,0,0,1,0,0H598.52a0,0,0,0,1,0,0V23.56A0,0,0,0,1,598.52,23.56Z"/><path class="cls-4" d="M666.67,35.45H644.93A11.94,11.94,0,0,0,633,47.38V60.8h46V29.9a5.83,5.83,0,0,1-2.38,4.75c-1.4.91-4.63.84-5.15.79"/><path class="cls-3" d="M633,157.09h55.87V60.41l-44,.4c-7.92-.4-11.49-8.32-11.49-8.32Z"/><rect class="cls-5" x="609.61" y="51.29" width="2.38" height="12.68"/><circle class="cls-6" cx="610.86" cy="48.52" r="2.97" transform="translate(89.81 371.04) rotate(-36.3)"/><circle class="cls-7" cx="610.8" cy="66.75" r="3.96"/><circle class="cls-8" cx="627.44" cy="32.67" r="2.97"/><path class="cls-9" d="M624.67,31.48c0,.12,0,1.86,0,2s-10.39-.15-10.46.08a3.76,3.76,0,1,1,0-2.2C614.31,31.7,624.67,31.48,624.67,31.48Z"/><circle class="cls-3" cx="644.68" cy="74.08" r="0.73" transform="translate(480.17 701.8) rotate(-81.87)"/><circle class="cls-3" cx="653" cy="74.08" r="0.73" transform="translate(-3.2 37.99) rotate(-3.32)"/><circle class="cls-10" cx="661.32" cy="74.08" r="2.18"/><circle class="cls-3" cx="669.64" cy="74.08" r="0.73" transform="translate(193.4 550.63) rotate(-51.33)"/><circle class="cls-3" cx="677.96" cy="74.08" r="0.73" transform="translate(-2.86 114.06) rotate(-9.6)"/><circle class="cls-3" cx="677.96" cy="85.17" r="0.73" transform="translate(-3.8 39.45) rotate(-3.32)"/><circle class="cls-3" cx="669.64" cy="85.17" r="0.73" transform="translate(-3.81 38.97) rotate(-3.32)"/><circle class="cls-3" cx="661.32" cy="85.17" r="0.73" transform="translate(309.73 651.73) rotate(-65.52)"/><circle class="cls-3" cx="653" cy="85.17" r="0.73" transform="translate(-3.84 38.01) rotate(-3.32)"/><circle class="cls-3" cx="645.08" cy="85.17" r="0.73" transform="translate(530.25 725.64) rotate(-87.36)"/><circle class="cls-3" cx="645.08" cy="96.27" r="0.73"/><circle class="cls-3" cx="653" cy="96.27" r="0.73" transform="translate(405.43 708.14) rotate(-76.36)"/><circle class="cls-3" cx="669.64" cy="96.27" r="0.73"/><circle class="cls-3" cx="677.96" cy="96.27" r="0.73"/><circle class="cls-3" cx="677.96" cy="107.36" r="0.73" transform="translate(293.97 676.32) rotate(-64.98)"/><circle class="cls-3" cx="669.64" cy="107.36" r="0.73"/><circle class="cls-3" cx="661.32" cy="107.36" r="0.73"/><circle class="cls-3" cx="653" cy="107.36" r="0.73" transform="translate(4.11 237.29) rotate(-20.66)"/><circle class="cls-10" cx="661.32" cy="95.87" r="2.18"/><circle class="cls-10" cx="644.68" cy="107.36" r="2.18"/><circle class="cls-3" cx="678.36" cy="118.46" r="0.73" transform="translate(-5.73 39.53) rotate(-3.32)"/><circle class="cls-3" cx="670.04" cy="118.46" r="0.73" transform="translate(-5.74 39.05) rotate(-3.32)"/><circle class="cls-3" cx="661.72" cy="118.46" r="0.73" transform="translate(279.67 671.58) rotate(-65.52)"/><circle class="cls-3" cx="653.4" cy="118.46" r="0.73" transform="translate(-5.77 38.09) rotate(-3.32)"/><circle class="cls-3" cx="645.47" cy="118.46" r="0.73" transform="translate(497.38 757.78) rotate(-87.36)"/><circle class="cls-3" cx="678.36" cy="129.16" r="0.73" transform="translate(-6.35 39.55) rotate(-3.32)"/><circle class="cls-3" cx="670.04" cy="129.16" r="0.73" transform="translate(-6.36 39.07) rotate(-3.32)"/><circle class="cls-3" cx="661.72" cy="129.16" r="0.73" transform="translate(269.93 677.84) rotate(-65.52)"/><circle class="cls-3" cx="653.4" cy="129.16" r="0.73" transform="translate(-6.39 38.1) rotate(-3.32)"/><circle class="cls-3" cx="645.47" cy="129.16" r="0.73" transform="translate(486.7 767.99) rotate(-87.36)"/><circle class="cls-3" cx="678.36" cy="139.85" r="0.73" transform="translate(-6.97 39.57) rotate(-3.32)"/><circle class="cls-3" cx="670.04" cy="139.85" r="0.73" transform="translate(-6.98 39.09) rotate(-3.32)"/><circle class="cls-3" cx="661.72" cy="139.85" r="0.73" transform="translate(260.19 684.1) rotate(-65.52)"/><circle class="cls-3" cx="653.4" cy="139.85" r="0.73" transform="translate(-7.01 38.12) rotate(-3.32)"/><circle class="cls-3" cx="645.47" cy="139.85" r="0.73" transform="translate(476.01 778.19) rotate(-87.36)"/><rect class="cls-9" x="610.41" y="79.43" width="22.19" height="4.36"/><rect class="cls-9" x="610.41" y="87.75" width="22.19" height="4.36"/><rect class="cls-9" x="610.41" y="96.07" width="22.19" height="4.36"/><rect class="cls-9" x="610.41" y="104.39" width="22.19" height="4.36"/><rect class="cls-9" x="610.41" y="112.71" width="22.19" height="4.36"/><rect class="cls-11" x="333.43" y="35" width="115.27" height="61.95"/><rect class="cls-4" x="340" y="41.2" width="11.64" height="7.51"/><rect class="cls-4" x="340" y="49.83" width="11.64" height="7.51"/><rect class="cls-4" x="340" y="58.47" width="11.64" height="7.51"/><rect class="cls-4" x="340" y="41.2" width="11.64" height="7.51"/><rect class="cls-4" x="340" y="49.83" width="11.64" height="7.51"/><rect class="cls-4" x="340" y="58.47" width="11.64" height="7.51"/><rect class="cls-4" x="352.77" y="41.2" width="11.64" height="7.51"/><rect class="cls-4" x="352.77" y="49.83" width="11.64" height="7.51"/><rect class="cls-4" x="352.77" y="58.47" width="11.64" height="7.51"/><rect class="cls-4" x="365.53" y="41.2" width="11.64" height="7.51"/><rect class="cls-4" x="365.53" y="49.83" width="11.64" height="7.51"/><rect class="cls-4" x="365.53" y="58.47" width="11.64" height="7.51"/><rect class="cls-4" x="378.3" y="41.2" width="11.64" height="7.51"/><rect class="cls-4" x="378.3" y="49.83" width="11.64" height="7.51"/><rect class="cls-4" x="378.3" y="58.47" width="11.64" height="7.51"/><rect class="cls-4" x="378.3" y="41.2" width="11.64" height="7.51"/><rect class="cls-4" x="378.3" y="49.83" width="11.64" height="7.51"/><rect class="cls-4" x="378.3" y="58.47" width="11.64" height="7.51"/><rect class="cls-4" x="391.06" y="41.2" width="11.64" height="7.51"/><rect class="cls-4" x="391.06" y="49.83" width="11.64" height="7.51"/><rect class="cls-4" x="391.06" y="58.47" width="11.64" height="7.51"/><rect class="cls-4" x="403.83" y="41.2" width="11.64" height="7.51"/><rect class="cls-4" x="403.83" y="49.83" width="11.64" height="7.51"/><rect class="cls-4" x="403.83" y="58.47" width="11.64" height="7.51"/><rect class="cls-4" x="416.59" y="41.2" width="11.64" height="7.51"/><rect class="cls-4" x="416.59" y="49.83" width="11.64" height="7.51"/><rect class="cls-4" x="416.59" y="58.47" width="11.64" height="7.51"/><rect class="cls-4" x="416.59" y="41.2" width="11.64" height="7.51"/><rect class="cls-4" x="416.59" y="49.83" width="11.64" height="7.51"/><rect class="cls-4" x="416.59" y="58.47" width="11.64" height="7.51"/><rect class="cls-4" x="429.36" y="41.2" width="11.64" height="7.51"/><rect class="cls-4" x="429.36" y="49.83" width="11.64" height="7.51"/><rect class="cls-4" x="429.36" y="58.47" width="11.64" height="7.51"/><rect class="cls-11" x="531.11" y="126.46" width="47.31" height="47.65"/><path class="cls-4" d="M465.78,166.42s2.63-13.06,10.89-22.29,20.27-11.14,25.16-11.91,18.4-2.69,24.4-7.69,12-8.07,19.15-24.59S566.78,83,571.66,83l-.38,84.15"/><ellipse class="cls-12" cx="563.12" cy="76.15" rx="0.39" ry="0.4"/><ellipse class="cls-12" cx="560.29" cy="76.15" rx="0.39" ry="0.4"/><ellipse class="cls-12" cx="557.45" cy="76.15" rx="0.39" ry="0.4"/><ellipse class="cls-12" cx="554.93" cy="76.15" rx="0.39" ry="0.4"/><ellipse class="cls-12" cx="552.4" cy="76.15" rx="0.39" ry="0.4"/><ellipse class="cls-12" cx="549.57" cy="76.15" rx="0.39" ry="0.4"/><ellipse class="cls-12" cx="546.73" cy="76.15" rx="0.39" ry="0.4"/><ellipse class="cls-12" cx="543.89" cy="76.15" rx="0.4" ry="0.39" transform="translate(435.19 614.49) rotate(-86.55)"/><ellipse class="cls-12" cx="563.12" cy="78.74" rx="0.39" ry="0.4"/><ellipse class="cls-12" cx="560.29" cy="78.74" rx="0.39" ry="0.4"/><ellipse class="cls-12" cx="557.45" cy="78.74" rx="0.39" ry="0.4"/><ellipse class="cls-12" cx="554.93" cy="78.74" rx="0.39" ry="0.4"/><ellipse class="cls-12" cx="552.4" cy="78.74" rx="0.39" ry="0.4"/><ellipse class="cls-12" cx="549.57" cy="78.74" rx="0.39" ry="0.4"/><ellipse class="cls-12" cx="546.73" cy="78.74" rx="0.39" ry="0.4"/><ellipse class="cls-12" cx="543.89" cy="78.74" rx="0.4" ry="0.39" transform="translate(432.61 616.91) rotate(-86.55)"/><ellipse class="cls-12" cx="563.12" cy="81.32" rx="0.39" ry="0.4"/><ellipse class="cls-12" cx="560.29" cy="81.32" rx="0.39" ry="0.4"/><ellipse class="cls-12" cx="557.45" cy="81.32" rx="0.39" ry="0.4"/><ellipse class="cls-12" cx="554.93" cy="81.32" rx="0.39" ry="0.4"/><ellipse class="cls-12" cx="552.4" cy="81.32" rx="0.39" ry="0.4"/><ellipse class="cls-12" cx="549.57" cy="81.32" rx="0.39" ry="0.4"/><ellipse class="cls-12" cx="546.73" cy="81.32" rx="0.39" ry="0.4"/><ellipse class="cls-12" cx="543.89" cy="81.32" rx="0.4" ry="0.39" transform="translate(430.04 619.34) rotate(-86.55)"/><ellipse class="cls-12" cx="563.12" cy="84.22" rx="0.39" ry="0.4"/><ellipse class="cls-12" cx="560.29" cy="84.22" rx="0.39" ry="0.4"/><ellipse class="cls-12" cx="557.45" cy="84.22" rx="0.39" ry="0.4"/><ellipse class="cls-12" cx="554.93" cy="84.22" rx="0.39" ry="0.4"/><ellipse class="cls-12" cx="552.4" cy="84.22" rx="0.39" ry="0.4"/><ellipse class="cls-12" cx="549.57" cy="84.22" rx="0.39" ry="0.4"/><ellipse class="cls-12" cx="546.73" cy="84.22" rx="0.39" ry="0.4"/><ellipse class="cls-12" cx="543.89" cy="84.22" rx="0.4" ry="0.39" transform="translate(427.14 622.07) rotate(-86.55)"/><ellipse class="cls-12" cx="563.12" cy="86.8" rx="0.39" ry="0.4"/><ellipse class="cls-12" cx="560.29" cy="86.8" rx="0.39" ry="0.4"/><ellipse class="cls-12" cx="557.45" cy="86.8" rx="0.39" ry="0.4"/><ellipse class="cls-12" cx="554.93" cy="86.8" rx="0.39" ry="0.4"/><ellipse class="cls-12" cx="552.4" cy="86.8" rx="0.39" ry="0.4"/><ellipse class="cls-12" cx="549.57" cy="86.8" rx="0.39" ry="0.4"/><ellipse class="cls-12" cx="546.73" cy="86.8" rx="0.39" ry="0.4"/><ellipse class="cls-12" cx="543.89" cy="86.8" rx="0.4" ry="0.39" transform="translate(424.56 624.5) rotate(-86.55)"/><ellipse class="cls-12" cx="563.12" cy="89.38" rx="0.39" ry="0.4"/><ellipse class="cls-12" cx="560.29" cy="89.38" rx="0.39" ry="0.4"/><ellipse class="cls-12" cx="557.45" cy="89.38" rx="0.39" ry="0.4"/><ellipse class="cls-12" cx="554.93" cy="89.38" rx="0.39" ry="0.4"/><ellipse class="cls-12" cx="552.4" cy="89.38" rx="0.39" ry="0.4"/><ellipse class="cls-12" cx="549.57" cy="89.38" rx="0.39" ry="0.4"/><ellipse class="cls-12" cx="546.73" cy="89.38" rx="0.39" ry="0.4"/><ellipse class="cls-12" cx="543.89" cy="89.38" rx="0.4" ry="0.39" transform="translate(421.99 626.92) rotate(-86.55)"/><ellipse class="cls-12" cx="563.12" cy="91.96" rx="0.39" ry="0.4"/><ellipse class="cls-12" cx="560.29" cy="91.96" rx="0.39" ry="0.4"/><ellipse class="cls-12" cx="557.45" cy="91.96" rx="0.39" ry="0.4"/><ellipse class="cls-12" cx="554.93" cy="91.96" rx="0.39" ry="0.4"/><ellipse class="cls-12" cx="552.4" cy="91.96" rx="0.39" ry="0.4"/><ellipse class="cls-12" cx="549.57" cy="91.96" rx="0.39" ry="0.4"/><ellipse class="cls-12" cx="546.73" cy="91.96" rx="0.39" ry="0.4"/><ellipse class="cls-12" cx="543.89" cy="91.96" rx="0.4" ry="0.39" transform="translate(419.41 629.35) rotate(-86.55)"/><ellipse class="cls-12" cx="563.12" cy="94.55" rx="0.39" ry="0.4"/><ellipse class="cls-12" cx="560.29" cy="94.55" rx="0.39" ry="0.4"/><ellipse class="cls-12" cx="557.45" cy="94.55" rx="0.39" ry="0.4"/><ellipse class="cls-12" cx="554.93" cy="94.55" rx="0.39" ry="0.4"/><ellipse class="cls-12" cx="552.4" cy="94.55" rx="0.39" ry="0.4"/><ellipse class="cls-12" cx="549.57" cy="94.55" rx="0.39" ry="0.4"/><ellipse class="cls-12" cx="546.73" cy="94.55" rx="0.39" ry="0.4"/><ellipse class="cls-12" cx="543.89" cy="94.55" rx="0.4" ry="0.39" transform="translate(416.83 631.77) rotate(-86.55)"/><ellipse class="cls-12" cx="563.12" cy="97.45" rx="0.39" ry="0.4"/><ellipse class="cls-12" cx="560.29" cy="97.45" rx="0.39" ry="0.4"/><ellipse class="cls-12" cx="557.45" cy="97.45" rx="0.39" ry="0.4"/><ellipse class="cls-12" cx="554.93" cy="97.45" rx="0.39" ry="0.4"/><ellipse class="cls-12" cx="552.4" cy="97.45" rx="0.39" ry="0.4"/><ellipse class="cls-12" cx="549.57" cy="97.45" rx="0.39" ry="0.4"/><ellipse class="cls-12" cx="546.73" cy="97.45" rx="0.39" ry="0.4"/><ellipse class="cls-12" cx="543.89" cy="97.45" rx="0.4" ry="0.39" transform="translate(413.93 634.5) rotate(-86.55)"/><ellipse class="cls-12" cx="563.12" cy="100.03" rx="0.39" ry="0.4"/><ellipse class="cls-12" cx="560.29" cy="100.03" rx="0.39" ry="0.4"/><ellipse class="cls-12" cx="557.45" cy="100.03" rx="0.39" ry="0.4"/><ellipse class="cls-12" cx="554.93" cy="100.03" rx="0.39" ry="0.4"/><ellipse class="cls-12" cx="552.4" cy="100.03" rx="0.39" ry="0.4"/><ellipse class="cls-12" cx="549.57" cy="100.03" rx="0.39" ry="0.4"/><ellipse class="cls-12" cx="546.73" cy="100.03" rx="0.39" ry="0.4"/><ellipse class="cls-12" cx="543.89" cy="100.03" rx="0.4" ry="0.39" transform="translate(411.36 636.93) rotate(-86.55)"/><ellipse class="cls-12" cx="563.12" cy="102.94" rx="0.39" ry="0.4"/><ellipse class="cls-12" cx="560.29" cy="102.94" rx="0.39" ry="0.4"/><ellipse class="cls-12" cx="557.45" cy="102.94" rx="0.39" ry="0.4"/><ellipse class="cls-12" cx="554.93" cy="102.94" rx="0.39" ry="0.4"/><ellipse class="cls-12" cx="552.4" cy="102.94" rx="0.39" ry="0.4"/><ellipse class="cls-12" cx="549.57" cy="102.94" rx="0.39" ry="0.4"/><ellipse class="cls-12" cx="546.73" cy="102.94" rx="0.39" ry="0.4"/><ellipse class="cls-12" cx="543.89" cy="102.94" rx="0.4" ry="0.39" transform="translate(408.46 639.66) rotate(-86.55)"/><ellipse class="cls-12" cx="563.12" cy="105.52" rx="0.39" ry="0.4"/><ellipse class="cls-12" cx="560.29" cy="105.52" rx="0.39" ry="0.4"/><ellipse class="cls-12" cx="557.45" cy="105.52" rx="0.39" ry="0.4"/><ellipse class="cls-12" cx="554.93" cy="105.52" rx="0.39" ry="0.4"/><ellipse class="cls-12" cx="552.4" cy="105.52" rx="0.39" ry="0.4"/><ellipse class="cls-12" cx="549.57" cy="105.52" rx="0.39" ry="0.4"/><ellipse class="cls-12" cx="546.73" cy="105.52" rx="0.39" ry="0.4"/><ellipse class="cls-12" cx="543.89" cy="105.52" rx="0.4" ry="0.39" transform="translate(405.88 642.09) rotate(-86.55)"/><ellipse class="cls-12" cx="563.12" cy="108.1" rx="0.39" ry="0.4"/><ellipse class="cls-12" cx="560.29" cy="108.1" rx="0.39" ry="0.4"/><ellipse class="cls-12" cx="557.45" cy="108.1" rx="0.39" ry="0.4"/><ellipse class="cls-12" cx="554.93" cy="108.1" rx="0.39" ry="0.4"/><ellipse class="cls-12" cx="552.4" cy="108.1" rx="0.39" ry="0.4"/><ellipse class="cls-12" cx="549.57" cy="108.1" rx="0.39" ry="0.4"/><ellipse class="cls-12" cx="546.73" cy="108.1" rx="0.39" ry="0.4"/><ellipse class="cls-12" cx="543.89" cy="108.1" rx="0.4" ry="0.39" transform="translate(403.31 644.51) rotate(-86.55)"/><ellipse class="cls-12" cx="563.12" cy="111" rx="0.39" ry="0.4"/><ellipse class="cls-12" cx="560.29" cy="111" rx="0.39" ry="0.4"/><ellipse class="cls-12" cx="557.45" cy="111" rx="0.39" ry="0.4"/><ellipse class="cls-12" cx="554.93" cy="111" rx="0.39" ry="0.4"/><ellipse class="cls-12" cx="552.4" cy="111" rx="0.39" ry="0.4"/><ellipse class="cls-12" cx="549.57" cy="111" rx="0.39" ry="0.4"/><ellipse class="cls-12" cx="546.73" cy="111" rx="0.39" ry="0.4"/><ellipse class="cls-12" cx="543.89" cy="111" rx="0.4" ry="0.39" transform="translate(400.41 647.24) rotate(-86.55)"/><ellipse class="cls-12" cx="563.12" cy="113.58" rx="0.39" ry="0.4"/><ellipse class="cls-12" cx="560.29" cy="113.58" rx="0.39" ry="0.4"/><ellipse class="cls-12" cx="557.45" cy="113.58" rx="0.39" ry="0.4"/><ellipse class="cls-12" cx="554.93" cy="113.58" rx="0.39" ry="0.4"/><ellipse class="cls-12" cx="552.4" cy="113.58" rx="0.39" ry="0.4"/><ellipse class="cls-12" cx="549.57" cy="113.58" rx="0.39" ry="0.4"/><ellipse class="cls-12" cx="546.73" cy="113.58" rx="0.39" ry="0.4"/><ellipse class="cls-12" cx="543.89" cy="113.58" rx="0.4" ry="0.39" transform="translate(397.83 649.67) rotate(-86.55)"/><ellipse class="cls-12" cx="563.12" cy="116.16" rx="0.39" ry="0.4"/><ellipse class="cls-12" cx="560.29" cy="116.16" rx="0.39" ry="0.4"/><ellipse class="cls-12" cx="557.45" cy="116.16" rx="0.39" ry="0.4"/><ellipse class="cls-12" cx="554.93" cy="116.16" rx="0.39" ry="0.4"/><ellipse class="cls-12" cx="552.4" cy="116.16" rx="0.39" ry="0.4"/><ellipse class="cls-12" cx="549.57" cy="116.16" rx="0.39" ry="0.4"/><ellipse class="cls-12" cx="546.73" cy="116.16" rx="0.39" ry="0.4"/><ellipse class="cls-12" cx="543.89" cy="116.16" rx="0.4" ry="0.39" transform="translate(395.25 652.09) rotate(-86.55)"/><ellipse class="cls-12" cx="563.12" cy="118.75" rx="0.39" ry="0.4"/><ellipse class="cls-12" cx="560.29" cy="118.75" rx="0.39" ry="0.4"/><ellipse class="cls-12" cx="557.45" cy="118.75" rx="0.39" ry="0.4"/><ellipse class="cls-12" cx="554.93" cy="118.75" rx="0.39" ry="0.4"/><ellipse class="cls-12" cx="552.4" cy="118.75" rx="0.39" ry="0.4"/><ellipse class="cls-12" cx="549.57" cy="118.75" rx="0.39" ry="0.4"/><ellipse class="cls-12" cx="546.73" cy="118.75" rx="0.39" ry="0.4"/><ellipse class="cls-12" cx="543.89" cy="118.75" rx="0.4" ry="0.39" transform="translate(392.68 654.52) rotate(-86.55)"/><ellipse class="cls-12" cx="563.12" cy="121.33" rx="0.39" ry="0.4"/><ellipse class="cls-12" cx="560.29" cy="121.33" rx="0.39" ry="0.4"/><ellipse class="cls-12" cx="557.45" cy="121.33" rx="0.39" ry="0.4"/><ellipse class="cls-12" cx="554.93" cy="121.33" rx="0.39" ry="0.4"/><ellipse class="cls-12" cx="552.4" cy="121.33" rx="0.39" ry="0.4"/><ellipse class="cls-12" cx="549.57" cy="121.33" rx="0.39" ry="0.4"/><ellipse class="cls-12" cx="546.73" cy="121.33" rx="0.39" ry="0.4"/><ellipse class="cls-12" cx="543.89" cy="121.33" rx="0.4" ry="0.39" transform="translate(390.1 656.95) rotate(-86.55)"/><ellipse class="cls-12" cx="563.12" cy="124.23" rx="0.39" ry="0.4"/><ellipse class="cls-12" cx="560.29" cy="124.23" rx="0.39" ry="0.4"/><ellipse class="cls-12" cx="557.45" cy="124.23" rx="0.39" ry="0.4"/><ellipse class="cls-12" cx="554.93" cy="124.23" rx="0.39" ry="0.4"/><ellipse class="cls-12" cx="552.4" cy="124.23" rx="0.39" ry="0.4"/><ellipse class="cls-12" cx="549.57" cy="124.23" rx="0.39" ry="0.4"/><ellipse class="cls-12" cx="546.73" cy="124.23" rx="0.39" ry="0.4"/><ellipse class="cls-12" cx="543.89" cy="124.23" rx="0.4" ry="0.39" transform="translate(387.2 659.67) rotate(-86.55)"/><ellipse class="cls-12" cx="563.12" cy="126.81" rx="0.39" ry="0.4"/><ellipse class="cls-12" cx="560.29" cy="126.81" rx="0.39" ry="0.4"/><ellipse class="cls-12" cx="557.45" cy="126.81" rx="0.39" ry="0.4"/><ellipse class="cls-12" cx="554.93" cy="126.81" rx="0.39" ry="0.4"/><ellipse class="cls-12" cx="552.4" cy="126.81" rx="0.39" ry="0.4"/><ellipse class="cls-12" cx="549.57" cy="126.81" rx="0.39" ry="0.4"/><ellipse class="cls-12" cx="546.73" cy="126.81" rx="0.39" ry="0.4"/><ellipse class="cls-12" cx="543.89" cy="126.81" rx="0.4" ry="0.39" transform="translate(384.62 662.1) rotate(-86.55)"/><ellipse class="cls-12" cx="563.12" cy="129.39" rx="0.39" ry="0.4"/><ellipse class="cls-12" cx="560.29" cy="129.39" rx="0.39" ry="0.4"/><ellipse class="cls-12" cx="557.45" cy="129.39" rx="0.39" ry="0.4"/><ellipse class="cls-12" cx="554.93" cy="129.39" rx="0.39" ry="0.4"/><ellipse class="cls-12" cx="552.4" cy="129.39" rx="0.39" ry="0.4"/><ellipse class="cls-12" cx="549.57" cy="129.39" rx="0.39" ry="0.4"/><ellipse class="cls-12" cx="546.73" cy="129.39" rx="0.39" ry="0.4"/><ellipse class="cls-12" cx="543.89" cy="129.39" rx="0.4" ry="0.39" transform="translate(382.05 664.53) rotate(-86.55)"/><ellipse class="cls-12" cx="563.12" cy="131.98" rx="0.39" ry="0.4"/><ellipse class="cls-12" cx="560.29" cy="131.98" rx="0.39" ry="0.4"/><ellipse class="cls-12" cx="557.45" cy="131.98" rx="0.39" ry="0.4"/><ellipse class="cls-12" cx="554.93" cy="131.98" rx="0.39" ry="0.4"/><ellipse class="cls-12" cx="552.4" cy="131.98" rx="0.39" ry="0.4"/><ellipse class="cls-12" cx="549.57" cy="131.98" rx="0.39" ry="0.4"/><ellipse class="cls-12" cx="546.73" cy="131.98" rx="0.39" ry="0.4"/><ellipse class="cls-12" cx="543.89" cy="131.98" rx="0.4" ry="0.39" transform="translate(379.47 666.95) rotate(-86.55)"/><ellipse class="cls-12" cx="563.12" cy="134.56" rx="0.39" ry="0.4"/><ellipse class="cls-12" cx="560.29" cy="134.56" rx="0.39" ry="0.4"/><ellipse class="cls-12" cx="557.45" cy="134.56" rx="0.39" ry="0.4"/><ellipse class="cls-12" cx="554.93" cy="134.56" rx="0.39" ry="0.4"/><ellipse class="cls-12" cx="552.4" cy="134.56" rx="0.39" ry="0.4"/><ellipse class="cls-12" cx="549.57" cy="134.56" rx="0.39" ry="0.4"/><ellipse class="cls-12" cx="546.73" cy="134.56" rx="0.39" ry="0.4"/><ellipse class="cls-12" cx="543.89" cy="134.56" rx="0.4" ry="0.39" transform="translate(376.89 669.38) rotate(-86.55)"/><ellipse class="cls-12" cx="563.12" cy="137.46" rx="0.39" ry="0.4"/><ellipse class="cls-12" cx="560.29" cy="137.46" rx="0.39" ry="0.4"/><ellipse class="cls-12" cx="557.45" cy="137.46" rx="0.39" ry="0.4"/><ellipse class="cls-12" cx="554.93" cy="137.46" rx="0.39" ry="0.4"/><ellipse class="cls-12" cx="552.4" cy="137.46" rx="0.39" ry="0.4"/><ellipse class="cls-12" cx="549.57" cy="137.46" rx="0.39" ry="0.4"/><ellipse class="cls-12" cx="546.73" cy="137.46" rx="0.39" ry="0.4"/><ellipse class="cls-12" cx="543.89" cy="137.46" rx="0.4" ry="0.39" transform="translate(374 672.11) rotate(-86.55)"/><ellipse class="cls-12" cx="563.12" cy="140.04" rx="0.39" ry="0.4"/><ellipse class="cls-12" cx="560.29" cy="140.04" rx="0.39" ry="0.4"/><ellipse class="cls-12" cx="557.45" cy="140.04" rx="0.39" ry="0.4"/><ellipse class="cls-12" cx="554.93" cy="140.04" rx="0.39" ry="0.4"/><ellipse class="cls-12" cx="552.4" cy="140.04" rx="0.39" ry="0.4"/><ellipse class="cls-12" cx="549.57" cy="140.04" rx="0.39" ry="0.4"/><ellipse class="cls-12" cx="546.73" cy="140.04" rx="0.39" ry="0.4"/><ellipse class="cls-12" cx="543.89" cy="140.04" rx="0.4" ry="0.39" transform="translate(371.42 674.54) rotate(-86.55)"/><ellipse class="cls-12" cx="563.12" cy="142.62" rx="0.39" ry="0.4"/><ellipse class="cls-12" cx="560.29" cy="142.62" rx="0.39" ry="0.4"/><ellipse class="cls-12" cx="557.45" cy="142.62" rx="0.39" ry="0.4"/><ellipse class="cls-12" cx="554.93" cy="142.62" rx="0.39" ry="0.4"/><ellipse class="cls-12" cx="552.4" cy="142.62" rx="0.39" ry="0.4"/><ellipse class="cls-12" cx="549.57" cy="142.62" rx="0.39" ry="0.4"/><ellipse class="cls-12" cx="546.73" cy="142.62" rx="0.39" ry="0.4"/><ellipse class="cls-12" cx="543.89" cy="142.62" rx="0.4" ry="0.39" transform="translate(368.84 676.96) rotate(-86.55)"/><ellipse class="cls-12" cx="563.12" cy="145.2" rx="0.39" ry="0.4"/><ellipse class="cls-12" cx="560.29" cy="145.2" rx="0.39" ry="0.4"/><ellipse class="cls-12" cx="557.45" cy="145.2" rx="0.39" ry="0.4"/><ellipse class="cls-12" cx="554.93" cy="145.2" rx="0.39" ry="0.4"/><ellipse class="cls-12" cx="552.4" cy="145.2" rx="0.39" ry="0.4"/><ellipse class="cls-12" cx="549.57" cy="145.2" rx="0.39" ry="0.4"/><ellipse class="cls-12" cx="546.73" cy="145.2" rx="0.39" ry="0.4"/><ellipse class="cls-12" cx="543.89" cy="145.2" rx="0.4" ry="0.39" transform="translate(366.27 679.39) rotate(-86.55)"/><ellipse class="cls-12" cx="563.12" cy="147.79" rx="0.39" ry="0.4"/><ellipse class="cls-12" cx="560.29" cy="147.79" rx="0.39" ry="0.4"/><ellipse class="cls-12" cx="557.45" cy="147.79" rx="0.39" ry="0.4"/><ellipse class="cls-12" cx="554.93" cy="147.79" rx="0.39" ry="0.4"/><ellipse class="cls-12" cx="552.4" cy="147.79" rx="0.39" ry="0.4"/><ellipse class="cls-12" cx="549.57" cy="147.79" rx="0.39" ry="0.4"/><ellipse class="cls-12" cx="546.73" cy="147.79" rx="0.39" ry="0.4"/><ellipse class="cls-12" cx="543.89" cy="147.79" rx="0.4" ry="0.39" transform="translate(363.69 681.81) rotate(-86.55)"/><ellipse class="cls-12" cx="563.12" cy="150.69" rx="0.39" ry="0.4"/><ellipse class="cls-12" cx="560.29" cy="150.69" rx="0.39" ry="0.4"/><ellipse class="cls-12" cx="557.45" cy="150.69" rx="0.39" ry="0.4"/><ellipse class="cls-12" cx="554.93" cy="150.69" rx="0.39" ry="0.4"/><ellipse class="cls-12" cx="552.4" cy="150.69" rx="0.39" ry="0.4"/><ellipse class="cls-12" cx="549.57" cy="150.69" rx="0.39" ry="0.4"/><ellipse class="cls-12" cx="546.73" cy="150.69" rx="0.39" ry="0.4"/><ellipse class="cls-12" cx="543.89" cy="150.69" rx="0.4" ry="0.39" transform="translate(360.79 684.54) rotate(-86.55)"/><ellipse class="cls-12" cx="563.12" cy="153.27" rx="0.39" ry="0.4"/><ellipse class="cls-12" cx="560.29" cy="153.27" rx="0.39" ry="0.4"/><ellipse class="cls-12" cx="557.45" cy="153.27" rx="0.39" ry="0.4"/><ellipse class="cls-12" cx="554.93" cy="153.27" rx="0.39" ry="0.4"/><ellipse class="cls-12" cx="552.4" cy="153.27" rx="0.39" ry="0.4"/><ellipse class="cls-12" cx="549.57" cy="153.27" rx="0.39" ry="0.4"/><ellipse class="cls-12" cx="546.73" cy="153.27" rx="0.39" ry="0.4"/><ellipse class="cls-12" cx="543.89" cy="153.27" rx="0.4" ry="0.39" transform="translate(358.21 686.97) rotate(-86.55)"/><path class="cls-2" d="M316.72,149h16.9s6-1.13,6.38,6.38.38,4.88.38,4.88-.38,6,7.13,6h40.17s5.63,0,5.63-6.76V149s0-5.26,5.26-5.26h80.35"/><line class="cls-12" x1="354.71" y1="111.93" x2="355.17" y2="112.38"/><polygon class="cls-13" points="333.89 118.58 326.03 118.58 319.55 124.79 325.11 131 332.97 131 327.42 124.79 333.89 118.58"/><ellipse class="cls-14" cx="362.48" cy="125.1" rx="2.31" ry="2.22"/><line class="cls-2" x1="362.11" y1="124.79" x2="326.95" y2="124.79"/><ellipse class="cls-15" cx="363.5" cy="125.23" rx="2.31" ry="2.22"/><ellipse class="cls-2" cx="362.48" cy="125.1" rx="8.56" ry="8.2"/><ellipse class="cls-2" cx="362.48" cy="125.1" rx="15.73" ry="15.07"/><ellipse class="cls-2" cx="362.48" cy="125.1" rx="23.25" ry="22.28"/><path class="cls-2" d="M385.91,125.37S391,128,398.4,117.83s10.18-10.64,13.41-10.64,6.94.44,12.49,8.42,7.4,8.87,8.79,9.31,6.48,2.22,10.64-.89S453.45,113,453.45,113s3.55-5.76,10.18-5.76c3.7,0,7.4,4,9.25,6.21s6.94,8.87,8.79,10.2a9.83,9.83,0,0,0,6.94,2.22c4.19,0,6-.89,8.33-3.55s5.51-7.12,6.48-8.42c3.12-4.18,5.55-7.09,9.71-7.09,5.09,0,7.86,4,11.1,7.54s9.25,10.64,9.25,10.64"/><path class="cls-16" d="M515.9,109c-1.13-5.26,0-6.76,1.5-11.64s.75-6.38,0-8.64-4.88-4.88-4.88-4.88-3-2.63-2.63-4.88,4.32-.94,4.32-.94c.38,0,1.13.38,6.38,3.38s5.63,10.14,5.63,10.51,0,4.88.38,9.39,2.63,12.39,2.63,12.39l10.51,30.41c-13.14,19.52-37.17,11.64-37.17,11.64L479.86,74s0-6,5.63,0,3,8.64,8.64,13.52,12,.75,15,15.77"/><path class="cls-16" d="M515.9,100.33c-1.13-.38-9.08-4.23-9.08-4.23"/><path class="cls-16" d="M510.57,77.91A12.14,12.14,0,0,0,508,76.3s-4.88-1.5-8.26-.75,0,4.51,0,4.51a41.93,41.93,0,0,0,7.13,3.38c4.13,1.5,4.47,14.78,4.47,14.78"/><path class="cls-16" d="M509.14,75.92s-3-1.13-4.51-1.88-8.26-2.25-8.26-2.25a10.57,10.57,0,0,0-4.13-.38c-1.5.38-.75,4.51-.75,4.51s1.88,3.75,5.26,4.88a55.21,55.21,0,0,1,6.38,2.63l1.15,9.36"/><line class="cls-16" x1="496.75" y1="80.81" x2="497.83" y2="89.75"/><path class="cls-16" d="M503.72,73.69S498.63,56.4,498.26,53A9.31,9.31,0,0,0,496,47.77a4.26,4.26,0,0,0-3.75,3c-1.13,3-1.31,16.69.66,20.55"/><circle class="cls-17" cx="483.24" cy="64.66" r="8.07"/><path class="cls-18" d="M496.33,133.26a85.53,85.53,0,0,0,15-2.77c7.73-2.2,10.75-2.94,14.12-5.38s6-4.84,6-4.84l8.23,23.42-3.53,4.74-4.66,3.87-4.51,2.43-4.06,1.4-5,.92-4.39.23-4.77-.3-3-.47-3.31-.81Z"/><circle class="cls-2" cx="499.55" cy="78.79" r="36.57"/><rect class="cls-2" x="230.92" y="27.56" width="68.38" height="68.02"/><rect class="cls-4" x="257.19" y="130.13" width="42.47" height="4.32"/><path class="cls-1" d="M289.58,162.17H256.83c-2.38,0-3.6-2.3-3.6-4.68h7.56V137.33a4.33,4.33,0,0,1,4.32-4.32H295.7c-1.8,1.08-1.8,1.94-1.8,4.32v20.16A4.55,4.55,0,0,1,289.58,162.17Z"/><line class="cls-2" x1="253.23" y1="157.13" x2="293.9" y2="157.13"/><line class="cls-19" x1="264.75" y1="132.65" x2="295.7" y2="132.65"/><rect class="cls-2" x="250.71" y="126.17" width="57.23" height="11.52"/><polygon class="cls-20" points="309.38 86.22 241.72 86.22 241.72 18.2 282.63 17.84 309.38 35.83 309.38 86.22"/><path class="cls-21" d="M248.93,27.92s-2.2,2.2,0,3.3,3.3,1.83,1.83,4"/><path class="cls-21" d="M264.93,24.9s-2.68-1.58-3.2.82-1,3.65-3.45,2.78"/><path class="cls-21" d="M254.16,21.17s-1.69-2.61-3.23-.69-2.49,2.84-4.33.94"/><path class="cls-21" d="M261.69,36.05s-2.68-1.58-3.2.82-1,3.65-3.45,2.78"/><path class="cls-21" d="M257.38,58s-2.68-1.58-3.2.82-1,3.65-3.45,2.78"/><path class="cls-21" d="M247.11,44.71s-1.7,2.61.68,3.23,3.61,1.11,2.63,3.57"/><path class="cls-21" d="M300.57,41.81s-2.68-1.58-3.2.82-1,3.65-3.45,2.78"/><path class="cls-21" d="M276.91,21.81s-.16,3.11,2.21,2.45,3.68-.85,4.06,1.77"/><path class="cls-21" d="M300.3,52.4s-.16,3.11,2.21,2.45,3.68-.85,4.06,1.77"/><path class="cls-21" d="M288.42,57.8s-.16,3.11,2.21,2.45,3.68-.85,4.06,1.77"/><path class="cls-21" d="M275.57,32.38s-3.08-.45-2.65,2,.5,3.74-2.14,3.88"/><path class="cls-21" d="M292.85,29.14s-3.08-.45-2.65,2,.5,3.74-2.14,3.88"/><path class="cls-21" d="M267.29,56.71s-2.2,2.2,0,3.3,3.3,1.83,1.83,4"/><path class="cls-21" d="M277.17,47.93s-2.68-1.58-3.2.82-1,3.65-3.45,2.78"/><path class="cls-21" d="M306.35,66.16s-1.69-2.61-3.23-.69-2.49,2.84-4.33.94"/><path class="cls-21" d="M284.82,44.12s-.16,3.11,2.21,2.45,3.68-.85,4.06,1.77"/><path class="cls-21" d="M283.49,54.7s-3.08-.45-2.65,2,.5,3.74-2.14,3.88"/><path class="cls-21" d="M306.53,76.65s-3.08-.45-2.65,2,.5,3.74-2.14,3.88"/><path class="cls-21" d="M246.77,77.95s-2.2,2.2,0,3.3,3.3,1.83,1.83,4"/><path class="cls-21" d="M267.45,70.61s-2.68-1.58-3.2.82-1,3.65-3.45,2.78"/><path class="cls-21" d="M253.8,69.76s-1.69-2.61-3.23-.69-2.49,2.84-4.33.94"/><path class="cls-21" d="M276.19,68.24s-.16,3.11,2.21,2.45,3.68-.85,4.06,1.77"/><path class="cls-21" d="M278.09,78.09s-3.08-.45-2.65,2,.5,3.74-2.14,3.88"/><path class="cls-21" d="M265.5,42.46s-3.08-.45-2.65,2,.5,3.74-2.14,3.88"/><path class="cls-21" d="M293.93,69.09s-3.08-.45-2.65,2,.5,3.74-2.14,3.88"/><polygon class="cls-1" points="316.58 79.39 254.67 79.39 254.67 11.36 292.1 11 316.58 29 316.58 79.39"/><line class="cls-22" x1="264.03" y1="27.92" x2="264.03" y2="70.75"/><line class="cls-22" x1="303.62" y1="70.75" x2="264.03" y2="70.75"/><path class="cls-22" d="M306.5,35.65a3.78,3.78,0,0,1-3.78,3.78l-.39,0a3.78,3.78,0,1,1,4.17-3.76Z"/><path class="cls-22" d="M302.54,39.43C301.82,71.83,278.43,71,278.43,71"/><circle class="cls-23" cx="222.82" cy="110.52" r="8.82" transform="translate(-13.55 33.1) rotate(-8.25)"/><line class="cls-2" x1="290.3" y1="95.22" x2="290.3" y2="126.17"/><line class="cls-2" x1="231.64" y1="110.7" x2="237.64" y2="110.7"/><line class="cls-24" x1="253.07" y1="110.7" x2="276.23" y2="110.7"/><line class="cls-2" x1="283.94" y1="110.7" x2="289.94" y2="110.7"/><ellipse class="cls-25" cx="223.36" cy="109.78" rx="3.6" ry="3.76"/><rect class="cls-2" x="90.55" y="85.94" width="116.01" height="75.18"/><polygon class="cls-2" points="90.55 138.22 114.98 138.22 114.98 147 127.19 147 127.19 153.87 140.55 153.48 140.55 164.55 90.55 164.55 90.55 138.22"/><rect class="cls-26" x="92.46" y="141.27" width="17.94" height="4.2"/><path class="cls-26" d="M133.68,147l.76,2.67s-4.58,1.53-5.34,2.29-.76,1.14-.76,1.14-.38.7,0,.73,10.7.1,11.07-.32.38,1.88.38-1.18a13.11,13.11,0,0,0-1.14-5.34Z"/><path class="cls-26" d="M155.43,160l.38,1.91-6.11,2.67.76.38h10.69s.38,0,0-1.14l-1.53-4.58Z"/><path class="cls-3" d="M146.65,136.31l.54,3.6.6,4s3.82,11.83,3.82,12.21a39.59,39.59,0,0,0,1.53,3.82h1.14l4.55-.62s1.18.24,1.18-.14v-1.14c0-.38-5.72-11.83-5.72-11.83V135.17a3.86,3.86,0,0,0-.76-2.67s-4.2,2.29-10.69-1.91c0,0-4.2-2.29-5-2.67-.34-.17-3.43-1.91-5-1.53a4.06,4.06,0,0,0-3.05,3.43,75.37,75.37,0,0,0,.76,8.4c.38,1.53,2.29,8.78,2.29,8.78H139l-1.91-9.92s6.11,2.29,6.49,2.29,3.43.76,3.43.76Z"/><path class="cls-18" d="M136,106.54l3.82,2.29s-1.53,6.49-1.14,8c0,0,1.53,1.53,5-1.14l.38,1.53,1.53-.38s.76.76,1.14-.76a69.92,69.92,0,0,1,2.67-6.49l3.43,2.29-3.07,8.19-.36,1,1.91-3.82,2.67.76s1.53.38.76,2.29-1.14,2.67-1.14,2.67l.38,9.16a8.72,8.72,0,0,1-2.8,1,17.41,17.41,0,0,1-4.38-.6l-2.6-1.14-1.73-1,.07-8.53A12.92,12.92,0,0,1,139.4,123c-.76,0-3.05,0-4.2-1.14s-1.91-2.67-1.14-7.63A34.6,34.6,0,0,1,136,106.54Z"/><line class="cls-2" x1="151.61" y1="116.85" x2="149.32" y2="121.05"/><path class="cls-2" d="M136.35,106.54c-.38-1.14-2.67-5.34-2.67-5.34"/><polyline class="cls-2" points="138.26 104.64 139.78 105.78 140.55 105.78 141.31 105.78 139.78 108.45"/><path class="cls-2" d="M144,116.85c0-.38-.76-3.05-.76-3.05l-1.91.76s-.76,0-.38-.76,0-3.05,0-3.05v-1.53l1.53-1.53,1.91-.38a1.54,1.54,0,0,1,1.91,1.14,8.36,8.36,0,0,0,1.14,3.05,1.88,1.88,0,0,1,.38,1.14l-1.14.76a1.18,1.18,0,0,1-.76-.38c-.38-.38-.76.76-.38-.38s.38-.38.38-1.14.38-.76-.38-.76h-1.14l-.38-1.53h-.38c-.76,0-1.14,0-1.53.38l-.76.76"/><line class="cls-2" x1="148.18" y1="106.54" x2="149.32" y2="109.6"/><path class="cls-2" d="M150.09,106.16l1.53,2.67s-.38.38.38.38.76-.38,1.14-.38a8.66,8.66,0,0,0,1.53-.38s.76.38.38.76-.38.76-.76,1.14a15.22,15.22,0,0,1-1.53,1.14"/><path class="cls-27" d="M166.88,87.46A20.81,20.81,0,0,1,165,96.62c-.5,1,1.53,4.2,1.53,4.2-3.05,2.67-8.4,7.25-10.69,8.78,0,0-2.29-3.82-4.47-3.07a12.13,12.13,0,0,1-3.92.4,19.46,19.46,0,1,1,19.46-19.46Z"/><polygon class="cls-2" points="168.41 99.67 155.05 110.36 154.28 111.5 154.28 112.65 155.05 114.18 158.87 118.37 159.63 118.37 160.39 118.37 162.3 117.23 170.13 110.82 174.89 106.93 175.28 106.16 174.89 104.64 170.69 99.67 169.55 99.29 168.41 99.67"/><path class="cls-2" d="M166.12,114.56l.38.38a4,4,0,0,0,1.53.38,4.7,4.7,0,0,0,1.91-.76,2.66,2.66,0,0,0,.76-1.53,4,4,0,0,0-.38-1.53l-.38-.38"/><path class="cls-2" d="M165.82,101.74l-13.06-15.8a8.66,8.66,0,0,0-1.53-.38c-.38,0-2.67.76-1.91,2.67a6,6,0,0,0,1.91,2.67s.76.38,1.14,0a1.18,1.18,0,0,0,.38-.76L152.38,89l-1.14-1.14-.76-.38-.76-.38-1.14.38-.76.38-.76.76-.38,1.53.38,1.14.76.76.76.38.76.38.76-.38V91.28l-.76-.76a1.88,1.88,0,0,1-.38-1.14L147.8,89h-1.14l-.76.38-.38.38-.76,1.14.38,2.29L147,95.48l10.3,12.59"/><path class="cls-2" d="M26.83,55.89a5.75,5.75,0,0,1,0-11.5"/><path class="cls-2" d="M26.83,61.86a11.73,11.73,0,0,1,0-23.45"/><path class="cls-2" d="M26.83,67.61a17.48,17.48,0,0,1,0-35"/><path class="cls-2" d="M26.83,72.92c-12.23,0-22.14-10.2-22.14-22.79S14.6,27.35,26.83,27.35"/><path class="cls-10" d="M100.73,90.67s1.86-5,9.53-.95"/><path class="cls-10" d="M118.66,58.76c-.31.06-4.51,7.14,3,9.57"/><path class="cls-10" d="M113.49,53.14s6.59,2.14,9.6,2.14,4.3-.44,4.73-2.21.43-2.65-3.87-4.87c-1.55-.8-3.55-1.89-5.64-3l-.68-.37c-3.49-1.88-7.1-3.79-9.16-4.59-3.44-1.33-17.2-5.75-23.22,3.1"/><path class="cls-10" d="M118.79,44.66s4.3.88,6-.88.86-3.1.86-4c0-.32-2.7-1.36-6.25-2.56-6.17-2.09-14.9-4.68-16.54-5-2.58-.44-17.63-4.87-22.79,4.87"/><path class="cls-10" d="M119.22,38c1.29,2.65,1.29,4.42,5.16,5.31"/><path class="cls-2" d="M26.78,10.59V43.33l37-.88L74.19,32,60.74,17.23s-3.87-5.31-16.34-6.64S26.78,10.59,26.78,10.59Z"/><path class="cls-10" d="M122.23,47.76s-1.72,4.87,4.73,5.75"/><path class="cls-10" d="M88.62,31.25S96,20.77,96.43,19s1.72-4,0-5.31-3.87,0-3.87,0L63.75,42.45l-37,.88v43.8H59.45s22.36.88,29.24,1.33S103.74,92,104.6,92h4.3s1.29-.88,1.29-1.33.43.88,0-1.33S87,72.53,87,72.53l.43-5.31s0-7.52,4.73-9.29,10.32.44,10.32.44,8.17,4.42,9.89,5.75a38.4,38.4,0,0,1,4.3,4.42s2.15,1.77,3.44.88,2.15-1.33,2.15-2.21.43-2.21-1.29-5.31-8.17-9.73-8.6-9.73-14.19-12.83-25.8,0"/><path class="cls-10" d="M89.12,17.67a2.32,2.32,0,0,0,2.15,1.77c1.72,0,2.15-1.77,3.44-2.65A7.15,7.15,0,0,0,96.77,14"/><ellipse class="cls-28" cx="117.93" cy="79.61" rx="9.03" ry="9.29"/><circle class="cls-4" cx="133.86" cy="28.39" r="0.64"/><circle class="cls-4" cx="133.86" cy="32.96" r="0.64"/><circle class="cls-4" cx="133.86" cy="37.54" r="0.64"/><circle class="cls-4" cx="133.86" cy="41.6" r="0.64"/><circle class="cls-4" cx="133.86" cy="45.67" r="0.64"/><circle class="cls-4" cx="133.86" cy="50.25" r="0.64"/><circle class="cls-4" cx="133.86" cy="54.82" r="0.64"/><circle class="cls-4" cx="137.93" cy="28.39" r="0.64"/><circle class="cls-4" cx="137.93" cy="32.96" r="0.64"/><circle class="cls-4" cx="137.93" cy="37.54" r="0.64"/><circle class="cls-4" cx="137.93" cy="41.6" r="0.64"/><circle class="cls-4" cx="137.93" cy="45.67" r="0.64"/><circle class="cls-4" cx="137.93" cy="50.25" r="0.64"/><circle class="cls-4" cx="137.93" cy="54.82" r="0.64"/><circle class="cls-4" cx="142" cy="28.39" r="0.64"/><circle class="cls-4" cx="142" cy="32.96" r="0.64"/><circle class="cls-4" cx="142" cy="37.54" r="0.64"/><circle class="cls-4" cx="142" cy="41.6" r="0.64"/><circle class="cls-4" cx="142" cy="45.67" r="0.64"/><circle class="cls-4" cx="142" cy="50.25" r="0.64"/><circle class="cls-4" cx="142" cy="54.82" r="0.64"/><circle class="cls-4" cx="146.57" cy="28.39" r="0.64"/><circle class="cls-4" cx="146.57" cy="32.96" r="0.64"/><circle class="cls-4" cx="146.57" cy="37.54" r="0.64"/><circle class="cls-4" cx="146.57" cy="41.6" r="0.64"/><circle class="cls-4" cx="146.57" cy="45.67" r="0.64"/><circle class="cls-4" cx="146.57" cy="50.25" r="0.64"/><circle class="cls-4" cx="146.57" cy="54.82" r="0.64"/><circle class="cls-4" cx="150.64" cy="28.39" r="0.64"/><circle class="cls-4" cx="150.64" cy="32.96" r="0.64"/><circle class="cls-4" cx="150.64" cy="37.54" r="0.64"/><circle class="cls-4" cx="150.64" cy="41.6" r="0.64"/><circle class="cls-4" cx="150.64" cy="45.67" r="0.64"/><circle class="cls-4" cx="150.64" cy="50.25" r="0.64"/><circle class="cls-4" cx="150.64" cy="54.82" r="0.64"/><circle class="cls-4" cx="154.71" cy="28.39" r="0.64"/><circle class="cls-4" cx="154.71" cy="32.96" r="0.64"/><circle class="cls-4" cx="154.71" cy="37.54" r="0.64"/><circle class="cls-4" cx="154.71" cy="41.6" r="0.64"/><circle class="cls-4" cx="154.71" cy="45.67" r="0.64"/><circle class="cls-4" cx="154.71" cy="50.25" r="0.64"/><circle class="cls-4" cx="154.71" cy="54.82" r="0.64"/><circle class="cls-4" cx="158.77" cy="28.39" r="0.64"/><circle class="cls-4" cx="158.77" cy="32.96" r="0.64"/><circle class="cls-4" cx="158.77" cy="37.54" r="0.64"/><circle class="cls-4" cx="158.77" cy="41.6" r="0.64"/><circle class="cls-4" cx="158.77" cy="45.67" r="0.64"/><circle class="cls-4" cx="158.77" cy="50.25" r="0.64"/><circle class="cls-4" cx="158.77" cy="54.82" r="0.64"/><circle class="cls-4" cx="162.84" cy="28.39" r="0.64"/><circle class="cls-4" cx="162.84" cy="32.96" r="0.64"/><circle class="cls-4" cx="162.84" cy="37.54" r="0.64"/><circle class="cls-4" cx="162.84" cy="41.6" r="0.64"/><circle class="cls-4" cx="162.84" cy="45.67" r="0.64"/><circle class="cls-4" cx="162.84" cy="50.25" r="0.64"/><circle class="cls-4" cx="162.84" cy="54.82" r="0.64"/><circle class="cls-4" cx="167.42" cy="28.39" r="0.64"/><circle class="cls-4" cx="167.42" cy="32.96" r="0.64"/><circle class="cls-4" cx="167.42" cy="37.54" r="0.64"/><circle class="cls-4" cx="167.42" cy="41.6" r="0.64"/><circle class="cls-4" cx="167.42" cy="45.67" r="0.64"/><circle class="cls-4" cx="167.42" cy="50.25" r="0.64"/><circle class="cls-4" cx="167.42" cy="54.82" r="0.64"/><circle class="cls-4" cx="171.48" cy="28.39" r="0.64"/><circle class="cls-4" cx="171.48" cy="32.96" r="0.64"/><circle class="cls-4" cx="171.48" cy="37.54" r="0.64"/><circle class="cls-4" cx="171.48" cy="41.6" r="0.64"/><circle class="cls-4" cx="171.48" cy="45.67" r="0.64"/><circle class="cls-4" cx="171.48" cy="50.25" r="0.64"/><circle class="cls-4" cx="171.48" cy="54.82" r="0.64"/><circle class="cls-4" cx="176.06" cy="28.39" r="0.64"/><circle class="cls-4" cx="176.06" cy="32.96" r="0.64"/><circle class="cls-4" cx="176.06" cy="37.54" r="0.64"/><circle class="cls-4" cx="176.06" cy="41.6" r="0.64"/><circle class="cls-4" cx="176.06" cy="45.67" r="0.64"/><circle class="cls-4" cx="176.06" cy="50.25" r="0.64"/><circle class="cls-4" cx="176.06" cy="54.82" r="0.64"/><circle class="cls-4" cx="180.13" cy="28.39" r="0.64"/><circle class="cls-4" cx="180.13" cy="32.96" r="0.64"/><circle class="cls-4" cx="180.13" cy="37.54" r="0.64"/><circle class="cls-4" cx="180.13" cy="41.6" r="0.64"/><circle class="cls-4" cx="180.13" cy="45.67" r="0.64"/><circle class="cls-4" cx="180.13" cy="50.25" r="0.64"/><circle class="cls-4" cx="180.13" cy="54.82" r="0.64"/><circle class="cls-4" cx="184.19" cy="28.39" r="0.64"/><circle class="cls-4" cx="184.19" cy="32.96" r="0.64"/><circle class="cls-4" cx="184.19" cy="37.54" r="0.64"/><circle class="cls-4" cx="184.19" cy="41.6" r="0.64"/><circle class="cls-4" cx="184.19" cy="45.67" r="0.64"/><circle class="cls-4" cx="184.19" cy="50.25" r="0.64"/><circle class="cls-4" cx="184.19" cy="54.82" r="0.64"/><circle class="cls-4" cx="188.77" cy="28.39" r="0.64"/><circle class="cls-4" cx="188.77" cy="32.96" r="0.64"/><circle class="cls-4" cx="188.77" cy="37.54" r="0.64"/><circle class="cls-4" cx="188.77" cy="41.6" r="0.64"/><circle class="cls-4" cx="188.77" cy="45.67" r="0.64"/><circle class="cls-4" cx="188.77" cy="50.25" r="0.64"/><circle class="cls-4" cx="188.77" cy="54.82" r="0.64"/><circle class="cls-4" cx="192.84" cy="28.39" r="0.64"/><circle class="cls-4" cx="192.84" cy="32.96" r="0.64"/><circle class="cls-4" cx="192.84" cy="37.54" r="0.64"/><circle class="cls-4" cx="192.84" cy="41.6" r="0.64"/><circle class="cls-4" cx="192.84" cy="45.67" r="0.64"/><circle class="cls-4" cx="192.84" cy="50.25" r="0.64"/><circle class="cls-4" cx="192.84" cy="54.82" r="0.64"/><circle class="cls-4" cx="196.9" cy="28.39" r="0.64"/><circle class="cls-4" cx="196.9" cy="32.96" r="0.64"/><circle class="cls-4" cx="196.9" cy="37.54" r="0.64"/><circle class="cls-4" cx="196.9" cy="41.6" r="0.64"/><circle class="cls-4" cx="196.9" cy="45.67" r="0.64"/><circle class="cls-4" cx="196.9" cy="50.25" r="0.64"/><circle class="cls-4" cx="196.9" cy="54.82" r="0.64"/><circle class="cls-4" cx="200.97" cy="28.39" r="0.64"/><circle class="cls-4" cx="200.97" cy="32.96" r="0.64"/><circle class="cls-4" cx="200.97" cy="37.54" r="0.64"/><circle class="cls-4" cx="200.97" cy="41.6" r="0.64"/><circle class="cls-4" cx="200.97" cy="45.67" r="0.64"/><circle class="cls-4" cx="200.97" cy="50.25" r="0.64"/><circle class="cls-4" cx="200.97" cy="54.82" r="0.64"/><circle class="cls-4" cx="205.04" cy="28.39" r="0.64"/><circle class="cls-4" cx="205.04" cy="32.96" r="0.64"/><circle class="cls-4" cx="205.04" cy="37.54" r="0.64"/><circle class="cls-4" cx="205.04" cy="41.6" r="0.64"/><circle class="cls-4" cx="205.04" cy="45.67" r="0.64"/><circle class="cls-4" cx="205.04" cy="50.25" r="0.64"/><circle class="cls-4" cx="205.04" cy="54.82" r="0.64"/><circle class="cls-4" cx="209.61" cy="28.39" r="0.64"/><circle class="cls-4" cx="209.61" cy="32.96" r="0.64"/><circle class="cls-4" cx="209.61" cy="37.54" r="0.64"/><circle class="cls-4" cx="209.61" cy="41.6" r="0.64"/><circle class="cls-4" cx="209.61" cy="45.67" r="0.64"/><circle class="cls-4" cx="209.61" cy="50.25" r="0.64"/><circle class="cls-4" cx="209.61" cy="54.82" r="0.64"/><circle class="cls-4" cx="213.68" cy="28.39" r="0.64"/><circle class="cls-4" cx="213.68" cy="32.96" r="0.64"/><circle class="cls-4" cx="213.68" cy="37.54" r="0.64"/><circle class="cls-4" cx="213.68" cy="41.6" r="0.64"/><circle class="cls-4" cx="213.68" cy="45.67" r="0.64"/><circle class="cls-4" cx="213.68" cy="50.25" r="0.64"/><circle class="cls-4" cx="213.68" cy="54.82" r="0.64"/><circle class="cls-4" cx="217.75" cy="28.39" r="0.64"/><circle class="cls-4" cx="217.75" cy="32.96" r="0.64"/><circle class="cls-4" cx="217.75" cy="37.54" r="0.64"/><circle class="cls-4" cx="217.75" cy="41.6" r="0.64"/><circle class="cls-4" cx="217.75" cy="45.67" r="0.64"/><circle class="cls-4" cx="217.75" cy="50.25" r="0.64"/><circle class="cls-4" cx="217.75" cy="54.82" r="0.64"/><circle class="cls-4" cx="221.81" cy="28.39" r="0.64"/><circle class="cls-4" cx="221.81" cy="32.96" r="0.64"/><circle class="cls-4" cx="221.81" cy="37.54" r="0.64"/><circle class="cls-4" cx="221.81" cy="41.6" r="0.64"/><circle class="cls-4" cx="221.81" cy="45.67" r="0.64"/><circle class="cls-4" cx="221.81" cy="50.25" r="0.64"/><circle class="cls-4" cx="221.81" cy="54.82" r="0.64"/><circle class="cls-4" cx="225.88" cy="28.39" r="0.64"/><circle class="cls-4" cx="225.88" cy="32.96" r="0.64"/><circle class="cls-4" cx="225.88" cy="37.54" r="0.64"/><circle class="cls-4" cx="225.88" cy="41.6" r="0.64"/><circle class="cls-4" cx="225.88" cy="45.67" r="0.64"/><circle class="cls-4" cx="225.88" cy="50.25" r="0.64"/><circle class="cls-4" cx="225.88" cy="54.82" r="0.64"/><circle class="cls-4" cx="230.45" cy="28.39" r="0.64"/><circle class="cls-4" cx="230.45" cy="32.96" r="0.64"/><circle class="cls-4" cx="230.45" cy="37.54" r="0.64"/><circle class="cls-4" cx="230.45" cy="41.6" r="0.64"/><circle class="cls-4" cx="230.45" cy="45.67" r="0.64"/><circle class="cls-4" cx="230.45" cy="50.25" r="0.64"/><circle class="cls-4" cx="230.45" cy="54.82" r="0.64"/><circle class="cls-4" cx="234.52" cy="28.39" r="0.64"/><circle class="cls-4" cx="234.52" cy="32.96" r="0.64"/><circle class="cls-4" cx="234.52" cy="37.54" r="0.64"/><circle class="cls-4" cx="234.52" cy="41.6" r="0.64"/><circle class="cls-4" cx="234.52" cy="45.67" r="0.64"/><circle class="cls-4" cx="234.52" cy="50.25" r="0.64"/><circle class="cls-4" cx="234.52" cy="54.82" r="0.64"/><circle class="cls-4" cx="238.59" cy="28.39" r="0.64"/><circle class="cls-4" cx="238.59" cy="32.96" r="0.64"/><circle class="cls-4" cx="238.59" cy="37.54" r="0.64"/><circle class="cls-4" cx="238.59" cy="41.6" r="0.64"/><circle class="cls-4" cx="238.59" cy="45.67" r="0.64"/><circle class="cls-4" cx="238.59" cy="50.25" r="0.64"/><circle class="cls-4" cx="238.59" cy="54.82" r="0.64"/><circle class="cls-4" cx="242.66" cy="28.39" r="0.64"/><circle class="cls-4" cx="242.66" cy="32.96" r="0.64"/><circle class="cls-4" cx="242.66" cy="37.54" r="0.64"/><circle class="cls-4" cx="242.66" cy="41.6" r="0.64"/><circle class="cls-4" cx="242.66" cy="45.67" r="0.64"/><circle class="cls-4" cx="242.66" cy="50.25" r="0.64"/><circle class="cls-4" cx="242.66" cy="54.82" r="0.64"/><circle class="cls-4" cx="246.72" cy="28.39" r="0.64"/><circle class="cls-4" cx="246.72" cy="32.96" r="0.64"/><circle class="cls-4" cx="246.72" cy="37.54" r="0.64"/><circle class="cls-4" cx="246.72" cy="41.6" r="0.64"/><circle class="cls-4" cx="246.72" cy="45.67" r="0.64"/><circle class="cls-4" cx="246.72" cy="50.25" r="0.64"/><circle class="cls-4" cx="246.72" cy="54.82" r="0.64"/><circle class="cls-4" cx="251.3" cy="28.39" r="0.64"/><circle class="cls-4" cx="251.3" cy="32.96" r="0.64"/><circle class="cls-4" cx="251.3" cy="37.54" r="0.64"/><circle class="cls-4" cx="251.3" cy="41.6" r="0.64"/><circle class="cls-4" cx="251.3" cy="45.67" r="0.64"/><circle class="cls-4" cx="251.3" cy="50.25" r="0.64"/><circle class="cls-4" cx="251.3" cy="54.82" r="0.64"/><circle class="cls-4" cx="255.36" cy="28.39" r="0.64"/><circle class="cls-4" cx="255.36" cy="32.96" r="0.64"/><circle class="cls-4" cx="255.36" cy="37.54" r="0.64"/><circle class="cls-4" cx="255.36" cy="41.6" r="0.64"/><circle class="cls-4" cx="255.36" cy="45.67" r="0.64"/><circle class="cls-4" cx="255.36" cy="50.25" r="0.64"/><circle class="cls-4" cx="255.36" cy="54.82" r="0.64"/><path class="cls-16" d="M42.72,132.85c.84-3.5,0-4.5-1.12-7.75s-.56-4.25,0-5.75,3.63-3.25,3.63-3.25,2.23-1.75,2-3.25-3.21-.62-3.21-.62c-.28,0-.84.25-4.74,2.25s-4.19,6.75-4.19,7,0,3.25-.28,6.25a53.15,53.15,0,0,1-2,8.25L25,156.21c9.77,13,27.63,7.75,27.63,7.75l16.88-54.34s0-4-4.19,0-2.23,5.75-6.42,9-8.93.5-11.16,10.49"/><path class="cls-16" d="M42.72,127.1c.84-.25,6.75-2.82,6.75-2.82"/><path class="cls-16" d="M46.68,112.18a9.25,9.25,0,0,1,1.9-1.07,16.56,16.56,0,0,1,6.14-.5c2.51.5,0,3,0,3a32.82,32.82,0,0,1-5.3,2.25c-3.07,1-3.32,9.84-3.32,9.84"/><path class="cls-16" d="M47.74,110.86s2.23-.75,3.35-1.25a59.15,59.15,0,0,1,6.14-1.5,8.73,8.73,0,0,1,3.07-.25c1.12.25.56,3,.56,3A7.55,7.55,0,0,1,57,114.11a43.79,43.79,0,0,0-4.74,1.75l-.86,6.23"/><line class="cls-16" x1="56.95" y1="114.11" x2="56.15" y2="120.06"/><path class="cls-16" d="M51.77,109.37s3.79-11.51,4.06-13.76a6,6,0,0,1,1.67-3.5,3.18,3.18,0,0,1,2.79,2c.84,2,1,11.1-.49,13.67"/><ellipse class="cls-17" cx="67" cy="103.36" rx="6" ry="5.37"/><circle class="cls-2" cx="30.78" cy="150.37" r="21.75" transform="translate(-122.43 159.57) rotate(-81.87)"/></svg>